<svg width="469" height="422" xmlns="http://www.w3.org/2000/svg" xmlns:xlink="http://www.w3.org/1999/xlink" xml:space="preserve" overflow="hidden"><g transform="translate(-672 -118)"><g><g><g><g><path d="M1211.9 308.268C1196.02 308.132 1183.37 310.602 1172.46 314.473 1151.15 313.5 1132.62 314.822 1122.42 322.895 1120.19 318.518 1114.85 316.476 1106.76 316.593 1104.58 323.926 1095.12 325.404 1088.4 329.099 1081.25 338.864 1083.95 351.604 1077.95 360.279 1074.01 365.745 1059.9 371.366 1054.2 376.91 1053.76 389.067 1047.72 396.731 1041 403.947 1041 421.939 1041 439.95 1041 458 1050.11 466.092 1058.07 475.098 1062.14 487.06 1074.26 492.74 1082.37 501.61 1098.91 503.691 1109.49 501.648 1122.05 501.182 1135.7 501.629 1141.15 498.245 1140.76 490.444 1151.56 491.242 1156.24 491.592 1153.07 498.263 1156.88 499.509 1168.97 498.186 1173.61 502.874 1183.04 503.691 1187.55 501.882 1189.76 497.894 1198.86 499.509 1201.51 515.575 1193.26 522.967 1193.55 537.029 1201.05 547.688 1213.87 555.741 1209.36 570.27 1216.3 577.254 1216.76 589.332 1219.84 599.369 1213.34 608.823 1214.87 624.403 1209.36 634.672 1220.63 643.133 1228.76 653.988 1233.12 668.011 1233.12 674.255 1233.12 680.46 1233.12 686.723 1244.75 697.518 1244.47 717.747 1256.7 728.27 1281.99 726.812 1294.63 715.452 1317.17 711.679 1321.17 700.242 1329.11 692.091 1340.71 686.723 1339.39 678.651 1345.47 676.55 1343.31 668.011 1348.04 666.105 1350.07 662.156 1359.17 663.771 1359.45 639.788 1370.13 624.092 1390.74 615.961 1394.57 599.039 1394.57 574.706 1390.74 557.803 1396.27 549.75 1400.8 540.861 1403.78 530.727 1410.07 527.362 1415.35 523.297 1422.22 520.34 1434.73 505.986 1446.09 490.639 1459.07 476.713 1461.07 468.912 1464.55 458.311 1456.34 453.818 1445.1 452.574 1445.76 460.626 1435.45 460.082 1427.42 460.082 1419.66 460.082 1411.74 460.082 1410.47 445.844 1397.39 440.903 1388 433.045 1390.35 419.371 1372.4 421.822 1377.53 405.97 1373.06 401.243 1364.88 399.395 1361.8 393.56 1364.11 387.705 1358.8 378.661 1361.14 377.124 1360.48 375.646 1359.69 373.993 1358.8 372.222 1358.05 372.748 1356.94 373.078 1356.57 372.787 1355.63 372.008 1356.92 371.017 1358.01 370.667 1353.22 361.446 1346.46 349.951 1343.86 345.535 1343.66 345.574 1343.51 345.633 1343.31 345.652 1324.18 340.109 1300.32 338.144 1274.92 337.367 1267.33 338.961 1268.65 347.656 1261.84 349.932 1249.74 340.031 1225.84 339.506 1214.63 329.099 1216.65 321.902 1211.63 320.288 1209.36 316.593 1215.48 316.028 1215.35 311.01 1211.9 308.268ZM999.177 426.082C999.177 430.166 992.021 428.688 993.99 434.348 997.512 434.348 1000.9 434.348 1004.44 434.348 1005.21 429.583 1003.73 426.529 999.177 426.082ZM1443.02 585.909C1438.42 591.978 1434.33 598.436 1432.44 606.683 1421.03 608.745 1415.24 615.105 1408.87 621.251 1406.75 628.429 1412.65 629.265 1411.46 635.782 1409.07 640.119 1407.3 645.021 1403.49 648.288 1409.24 657.664 1401.67 665.969 1411.46 673.244 1419.97 673.633 1422.54 669.529 1432.44 671.124 1438.16 661.826 1436 657.722 1443.02 648.288 1443.02 644.768 1443.02 641.345 1443.02 637.843 1443.65 635.509 1445.91 634.615 1448.25 633.661 1443.48 624.558 1453.06 615.941 1453.61 600.42 1443.76 600.537 1453.9 584.976 1443.02 585.909Z" fill="#3C753F" fill-rule="evenodd" fill-opacity="1" transform="matrix(1.00024 0 0 1 -321.881 -188.27)"/></g></g></g></g></g></svg>